<svg
  xmlns="http://www.w3.org/2000/svg"
  xmlns:xlink="http://www.w3.org/1999/xlink"
  fill="#FFF"
  version="1.1" x="0px" y="0px" viewBox="0 0 100 125"
  enable-background="new 0 0 100 100" xml:space="preserve">
  <path d="M48,52.451"/><path d="M48,52.451"/><path d="M48,52.451"/><path d="M48,52.451"/><path d="M48,52.451"/><path d="M48,52.451"/><path d="M48,52.451"/><path d="M48,52.451"/><path d="M91.789,30.793C91.327,29.612,90.189,29,88.92,29H11.413c-1.269,0-2.408,0.612-2.869,1.793  c-0.461,1.182-0.15,2.443,0.783,3.302l38.753,35.633c0.589,0.543,1.338,0.793,2.086,0.793c0.748,0,1.497-0.281,2.087-0.824  l38.753-35.596C91.939,33.242,92.251,31.975,91.789,30.793z"/>
</svg>
