<svg xmlns="http://www.w3.org/2000/svg" width="748" height="200" viewBox="0 0 748 200">
  <defs>
    <style>
      .cls-1 {
        fill: #fff;
        fill-rule: evenodd;
      }
    </style>
  </defs>
  <path id="community.svg" class="cls-1" d="M458.025,147.491a49.253,49.253,0,0,0-23.046-13.378,30.14,30.14,0,0,0,9.183-6.438,31.751,31.751,0,0,0,4.681-5.9,29.627,29.627,0,0,0,4.5-15.968,30.1,30.1,0,0,0-9.182-22.046,37.474,37.474,0,0,0-3.6-3.129,30.564,30.564,0,0,0-18.581-6.042,31.959,31.959,0,0,0-8.138,1.079c-0.54-.539-1.08-1.115-1.62-1.654A48.568,48.568,0,0,0,389.213,60.6a30.976,30.976,0,0,0,9.074-6.366A29.972,29.972,0,0,0,407.469,32.3a31.219,31.219,0,1,0-53.22,22.011,31.555,31.555,0,0,0,9.074,6.257,49.018,49.018,0,0,0-23.081,13.379c-0.936.935-1.836,1.87-2.664,2.841a31.5,31.5,0,0,0-11.7-2.194,29.66,29.66,0,0,0-21.893,9.171A29.968,29.968,0,0,0,294.8,105.81a29.578,29.578,0,0,0,9.11,21.794,30.673,30.673,0,0,0,9.11,6.474A51.554,51.554,0,0,0,275,183.348a53.122,53.122,0,0,0,.828,9.207,7.881,7.881,0,0,0,7.778,6.438h84.727a7.929,7.929,0,0,1,11.2-.176c0.06,0.057.119,0.116,0.177,0.176h84.728a7.868,7.868,0,0,0,7.741-6.438,53.025,53.025,0,0,0,.829-9.207A48.783,48.783,0,0,0,458.025,147.491Zm-46.7-52.758a13.239,13.239,0,0,1,3.529-2.625c0.18-.072.324-0.144,0.468-0.216a13.507,13.507,0,0,1,6.661-1.582,14.854,14.854,0,0,1,9.147,2.913A15.882,15.882,0,0,1,433,94.841a14.628,14.628,0,0,1,4.573,10.969,13.945,13.945,0,0,1-2.2,7.768,16.116,16.116,0,0,1-2.413,3.021,14.414,14.414,0,0,1-10.983,4.5,14.171,14.171,0,0,1-10.766-4.532,16.545,16.545,0,0,1-2.449-3.093,13.948,13.948,0,0,1-2.124-7.66A14.757,14.757,0,0,1,411.322,94.733ZM360.8,32.3A15.3,15.3,0,0,1,376,16.907q0.123,0,.246,0a14.559,14.559,0,0,1,10.839,4.351A14.892,14.892,0,0,1,391.734,32.3,15.358,15.358,0,0,1,376.3,47.584H376.25a14.863,14.863,0,0,1-10.91-4.423A14.553,14.553,0,0,1,360.8,32.3Zm-50.268,73.51a14.693,14.693,0,0,1,4.609-11,14.267,14.267,0,0,1,10.731-4.5,15.073,15.073,0,0,1,9.038,2.805c0.648,0.575,1.368,1.151,2.088,1.834a14.765,14.765,0,0,1,4.357,10.861,14.515,14.515,0,0,1-2.088,7.768,15.994,15.994,0,0,1-2.377,2.985,14.679,14.679,0,0,1-11.018,4.532,14.245,14.245,0,0,1-10.8-4.6,14.016,14.016,0,0,1-4.537-10.68h0Zm-19.768,77.5a35.326,35.326,0,0,1,35.108-35.064,33.638,33.638,0,0,1,24.882,10.286v0.036a33.29,33.29,0,0,1,10.262,24.742H290.767Zm83.179-17.118a52.1,52.1,0,0,0-35.108-32.08,33.147,33.147,0,0,0,13.971-12.443,30.585,30.585,0,0,0,4.321-15.86,30.074,30.074,0,0,0-6.878-19.6c0.36-.4.756-0.791,1.152-1.187A33.376,33.376,0,0,1,376.25,74.737a32.938,32.938,0,0,1,23.621,9.207,30.193,30.193,0,0,0-8.966,21.866,29.656,29.656,0,0,0,4.429,15.86,29.282,29.282,0,0,0,4.682,5.933,31.621,31.621,0,0,0,9.146,6.51,48.706,48.706,0,0,0-23.045,13.343,49.94,49.94,0,0,0-12.171,18.738h0Zm12.926,17.118a35.121,35.121,0,0,1,59.99-24.742,0.036,0.036,0,0,1,.036.036h0a33.143,33.143,0,0,1,10.335,24.707H386.872Z"/>
</svg>
