<svg xmlns="http://www.w3.org/2000/svg" width="748" height="200" viewBox="0 0 748 200">
  <defs>
    <style>
      .cls-1 {
        fill-rule: evenodd;
      }
    </style>
  </defs>
  <path id="menu.svg" class="cls-1" d="M477.307,0.993H283.693A6.678,6.678,0,0,0,277,7.643V37.2a6.678,6.678,0,0,0,6.689,6.65H477.305a6.679,6.679,0,0,0,6.689-6.65V7.643A6.675,6.675,0,0,0,477.307.993Zm0,77.58H283.693A6.677,6.677,0,0,0,277,85.223v29.556a6.678,6.678,0,0,0,6.689,6.65H477.305a6.68,6.68,0,0,0,6.689-6.65V85.223A6.674,6.674,0,0,0,477.307,78.573Zm0,77.581H283.693A6.677,6.677,0,0,0,277,162.8v29.555a6.677,6.677,0,0,0,6.689,6.65H477.305a6.679,6.679,0,0,0,6.689-6.65V162.8A6.673,6.673,0,0,0,477.307,156.154Z"/>
</svg>
