<svg xmlns="http://www.w3.org/2000/svg" width="748" height="200" viewBox="0 0 748 200">
  <defs>
    <style>
      .cls-1 {
        fill: #fefefe;
        fill-rule: evenodd;
      }
    </style>
  </defs>
  <path id="open.svg" class="cls-1" d="M378.605,0.986a99.682,99.682,0,0,0-91.94,66.057C266.981,120.1,292.591,179.637,343.853,200l22.773-61.441a37.127,37.127,0,0,1-22.943-34.637,35.833,35.833,0,1,1,71.623-2.458q0.042,1.229,0,2.458a37.127,37.127,0,0,1-22.943,34.637L415.136,200a101.242,101.242,0,0,0,57.189-59.2C492.008,87.749,466.4,28.213,415.136,7.846A95.816,95.816,0,0,0,378.605.986h0Z"/>
</svg>
