<svg xmlns="http://www.w3.org/2000/svg" width="748" height="200" viewBox="0 0 748 200">
  <defs>
    <style>
      .cls-1 {
        fill: #fefefe;
        fill-rule: evenodd;
      }
    </style>
  </defs>
  <path id="smile.svg" class="cls-1" d="M622.381,0c-6.694,0-13.333,4.107-16.874,11.417-5.035,9.116-1.249,20.841,8.82,26.058a125.9,125.9,0,0,1,44.1,37.768,9.473,9.473,0,0,0-6.3,2.608,527.757,527.757,0,0,1-284.679,83.376h-1.062A520.4,520.4,0,0,1,83.868,77.853c-2.524-1.3-3.772-2.608-6.3-2.608a126.021,126.021,0,0,1,44.1-37.768,21.614,21.614,0,0,0,8.82-26.058A20.744,20.744,0,0,0,112.571.791,17.9,17.9,0,0,0,105.3,2.3,168.183,168.183,0,0,0,18.353,171.649c1.262,10.421,8.82,16.928,18.9,16.928h2.51c10.083-1.3,17.641-10.42,16.379-22.145a131.758,131.758,0,0,1,6.31-58.622c1.262,1.3,2.51,2.608,3.772,2.608C156.955,169.041,262.786,199,369.893,199l1.514,0a551.079,551.079,0,0,0,299.629-88.582c1.262-1.3,2.524-2.608,3.772-2.608a131.749,131.749,0,0,1,6.31,58.622c-1.262,10.421,6.3,20.841,16.379,22.145h2.51c8.821,0,17.641-7.812,18.9-16.928a178.174,178.174,0,0,0-17.641-99C684.891,42.679,660.953,17.926,630.72,2.3A16.3,16.3,0,0,0,622.381,0"/>
</svg>
