<svg xmlns="http://www.w3.org/2000/svg" width="748" height="200" viewBox="0 0 748 200">
  <defs>
    <style>
      .cls-1 {
        fill: #fefefe;
        fill-rule: evenodd;
      }
    </style>
  </defs>
  <path id="talk.svg" class="cls-1" d="M282.515,176.166h15.291v22.839h7.646l22.938-22.839h45.876c7.416,0,11.468-7.346,11.468-14.694v-49.1a12.077,12.077,0,0,0-11.769-12.383c-0.32-.008-0.641,0-0.961.012H283.776a12.1,12.1,0,0,0-12.755,11.4c-0.017.324-.022,0.649-0.013,0.973v49.1C271.007,168.82,275.1,176.166,282.515,176.166ZM479.4,103.538h-12.73v19.337h-6.385l-19.115-19.337H402.938c-6.155,0-9.558-6.2-9.558-12.409V49.563a10.12,10.12,0,0,1,9.761-10.472c0.289-.011.579-0.01,0.867,0h74.357a10.152,10.152,0,0,1,10.623,9.652c0.013,0.271.014,0.544,0,.816V91.129C488.993,97.334,485.552,103.538,479.4,103.538ZM302.012,53.787h10.7v15.8h5.352l16.056-15.8h32.113c5.161,0,8.029-5.1,8.029-10.163V9.6a8.418,8.418,0,0,0-8.258-8.576q-0.325-.007-0.65.011H302.891a8.431,8.431,0,0,0-8.932,7.894c-0.013.223-.018,0.447-0.013,0.671v34.03c0,5.062,2.9,10.163,8.066,10.163h0Z"/>
</svg>
