<svg xmlns="http://www.w3.org/2000/svg" width="748" height="200" viewBox="0 0 748 200">
  <defs>
    <style>
      .cls-1 {
        fill: #fefefe;
        fill-rule: evenodd;
      }
    </style>
  </defs>
  <path id="training.svg" class="cls-1" d="M473.245,200.009H326.314a5.89,5.89,0,0,1,0-11.778H473.245A5.89,5.89,0,0,1,473.245,200.009ZM397.233,80.883A39.97,39.97,0,1,1,436.386,40.3q0,0.306,0,.613a39.585,39.585,0,0,1-39.156,39.966h0Zm0-68.194A28.232,28.232,0,1,0,424.87,41.368c0-.149,0-0.3,0-0.451a27.989,27.989,0,0,0-27.64-28.228h0Zm59.12,166.85H444.836V135.1c0-20.957-14.951-37.976-33.3-37.976H385.474c-18.347,0-24,3.737-28.934,7.027l-1.293.853c-4.243,2.721-19.962,14.541-20.124,14.662L331,122.8,300.37,89.331a5.032,5.032,0,0,0-6.344.162,6.836,6.836,0,0,0-.728,7.474l0.162,0.244L328.7,146.6a3.168,3.168,0,0,0,2.263,1.178c4.364,0.407,11.436-4.183,14.144-6.458l9.456-7.961V179.54H343.044V156.471a24.831,24.831,0,0,1-13.214,2.964,14.647,14.647,0,0,1-10.305-5.726L284.206,104.2a18.6,18.6,0,0,1,1.7-23.028,16.313,16.313,0,0,1,22.548-.2l0.2,0.2,23.761,25.953c5.132-3.778,13.5-9.992,16.649-12.023l1.172-.771c6.021-3.98,13.456-8.936,35.238-8.936h26.064c24.69,0,44.815,22.3,44.815,49.713v44.434h0v0Z"/>
</svg>
