<?xml version="1.0" encoding="utf-8"?>
<!-- Generator: Adobe Illustrator 19.2.0, SVG Export Plug-In . SVG Version: 6.00 Build 0)  -->
<svg version="1.1" id="Calque_1" xmlns="http://www.w3.org/2000/svg" xmlns:xlink="http://www.w3.org/1999/xlink" x="0px" y="0px"
	 viewBox="0 0 245.5 200" style="enable-background:new 0 0 245.5 200;" xml:space="preserve">
<path id="twitter.svg" d="M246,23.7c-9.2,4.1-19,6.8-29,8c10.5-6.3,18.4-16.2,22.2-27.9c-9.9,5.9-20.8,10-32.1,12.3
	C188-4.4,156-5.3,135.7,13.8c-13.1,12.3-18.6,30.7-14.6,48.2c-40.6-2-78.4-21.2-104-52.8C3.8,32.3,10.6,61.8,32.8,76.7
	c-8-0.3-15.9-2.4-22.9-6.3v0.6c0,24,16.9,44.7,40.5,49.5c-4.3,1.2-8.8,1.8-13.3,1.8c-3.2,0-6.4-0.3-9.5-0.9
	c6.6,20.6,25.5,34.7,47.1,35.1c-17.9,14-40,21.6-62.7,21.6c-4,0-8-0.2-12-0.7C23.1,192.1,49.9,200,77.4,200
	c92.8,0,143.6-77,143.6-143.7l-0.2-6.5C230.7,42.7,239.2,33.8,246,23.7z"/>
</svg>
