<svg xmlns="http://www.w3.org/2000/svg" width="200" height="200" viewBox="0 0 200 200">
  <defs>
    <style>
      .cls-1 {
        fill-rule: evenodd;
      }
    </style>
  </defs>
  <path id="Forme_16" data-name="Forme 16" class="cls-1" d="M219,173v27l-18.985-.006L200,0H400V172.994Zm127.081-40.723a5.9,5.9,0,0,0,4.2,1.714,5.61,5.61,0,0,0,5.705-4.887h-1.25a4.537,4.537,0,0,1-7.641,2.468c-1.2-1.2-1.3-2.512-1.3-6.086s0.1-4.885,1.3-6.083a4.47,4.47,0,0,1,3.186-1.291,4.376,4.376,0,0,1,4.406,3.758h1.3a5.577,5.577,0,0,0-5.705-4.885,5.9,5.9,0,0,0-4.2,1.715c-1.527,1.524-1.552,3.006-1.552,6.786C344.529,129.245,344.554,130.749,346.081,132.277ZM339.2,133.85h1.272V117.125H339.2V133.85Zm-13.018,0h10.184v-1.126h-8.911v-15.6h-1.273V133.85Zm-15.351,0H317.2c2.948,0,4.929-1.573,4.929-4.557a4.083,4.083,0,0,0-2.876-4.041,3.821,3.821,0,0,0,2.616-3.757c0-2.75-2.075-4.37-4.857-4.37H310.83V133.85Zm-15.99-5.427a5.757,5.757,0,0,0,11.508,0v-11.3h-1.272v11.136a4.483,4.483,0,1,1-8.962,0V117.125H294.84v11.3Zm-14.173,5.427h1.274v-7.094h4.881c2.9,0,5.07-1.761,5.07-4.815,0-3.077-2.171-4.816-5.07-4.816h-6.155V133.85Zm-13.631,0h10.187v-1.126H268.31v-6.743H275.9v-1.127H268.31v-6.6h8.913v-1.128H267.036V133.85Zm-15.021,0h1.272v-7.7h4.622l4.011,7.7H263.4l-4.058-7.728a4.308,4.308,0,0,0,3.868-4.511c0-2.911-2.072-4.486-4.812-4.486h-6.388V133.85ZM359,97h-8L335.727,78,349.46,58.9h9.534v-9.9H331.238v9.9h5.389l-7.371,10.243L321.133,58.9h5.721v-9.9H276.787v9.9h5.48v25.61a42.4,42.4,0,0,1-.549,8.693,6.278,6.278,0,0,1-2.506,3.552,8.111,8.111,0,0,1-4.9,1.422,7.3,7.3,0,0,1-4.733-1.5,6.212,6.212,0,0,1-2.28-3.824,47.683,47.683,0,0,1-.377-7.587V58.9L272,58.989v-10H244.989v10l6.58-.094V85.257a54.527,54.527,0,0,0,.7,10.116,15.878,15.878,0,0,0,2.911,5.976,14.952,14.952,0,0,0,6.72,4.828A29.249,29.249,0,0,0,272.826,108a27.016,27.016,0,0,0,9.8-1.651,15.729,15.729,0,0,0,6.5-4.307,12.717,12.717,0,0,0,2.833-5.349,43.691,43.691,0,0,0,.546-8.631V58.9h11.824l14.091,18.519L304,97h-8v10h27V97h-6l8-11,9,11h-6v10h31V97Zm-97.057,24.635c0,2.326-1.532,3.384-3.7,3.384h-4.952v-6.766h4.952C260.411,118.253,261.943,119.309,261.943,121.635Zm28.675,0.306c0,2.513-1.605,3.689-3.939,3.689h-4.738v-7.377h4.738C289.013,118.253,290.618,119.427,290.618,121.941Zm29.972-.446c0,2.3-1.7,3.239-3.726,3.239H312.1v-6.481h4.762C318.892,118.253,320.59,119.191,320.59,121.5Zm0.26,7.8c0,2.162-1.51,3.431-3.8,3.431H312.1v-6.862h4.951C319.34,125.862,320.85,127.131,320.85,129.293Z" transform="translate(-200)"/>
</svg>
